<?xml version="1.0" encoding="utf-8"?>
<!-- Generator: Adobe Illustrator 25.2.0, SVG Export Plug-In . SVG Version: 6.00 Build 0)  -->
<svg version="1.1" id="Camada_1" xmlns="http://www.w3.org/2000/svg" xmlns:xlink="http://www.w3.org/1999/xlink" x="0px" y="0px"
	 viewBox="0 0 131.9 131.2" style="enable-background:new 0 0 131.9 131.2;" xml:space="preserve">
<style type="text/css">
	.st0{fill:#F2923C;}
	.st1{fill:#010202;}
</style>
<ellipse class="st0" cx="66" cy="65.6" rx="66" ry="65.6"/>
<g>
	<g>
		<path d="M54.7,31.6v6.5H50v-1.9h-4.8v-4.6h-4.3v-16H23.7v10.5h8.7v12.8h-8.7V60h11.6v4.5H23.7v7H26v13.1h-2.2v7.6h7.5v15.8h-7.5
			v7.6h16.8l0.2-13.6H37V84.6h4l0.1-6.6H37v-6.4h4.2L41.5,49h15.9V31.6H54.7z M31.2,51.9h-4.7v-4.7h4.7V51.9z M38,86.8V99h2.8
			L41,86.8H38z M23.7,73.4v5.5h1.2v-5.5H23.7z"/>
		<path d="M90.7,57.1l0.1,8.4h3.9v-8.4H90.7z M108.4,23.8v-8.2H91.2v16H74.7V49h15.9l0.1,6.2H98V68h-7.1l0.3,19.8h10v6.4h-9.9
			l0.1,4.8l0.2,10.3l0.1,6.3h16.9v-6.3h-7.7v-5.2h7.7V91.9h-0.8V76.1h0.8V68h-4V47.2h4v-11h-4V23.8H108.4z M98,36.2H83.3v-2.8H98
			V36.2z"/>
		<polygon points="74.7,48.7 74.7,60.9 70.4,60.9 70.4,65.6 57.4,65.6 57.4,48.7 		"/>
	</g>
	<polygon class="st1" points="105.5,99 105.5,104.2 100.7,104.2 100.7,109.3 86.3,109.3 86.3,99 	"/>
	<rect x="38" y="86.8" class="st1" width="6.3" height="12.2"/>
	<polygon class="st1" points="89.1,77 89.1,87.8 88.3,87.8 88.3,88.9 85.2,88.9 85.2,77 	"/>
	<rect x="14.1" y="73.4" class="st1" width="10.8" height="5.5"/>
</g>
</svg>
